<?xml version="1.0" encoding="UTF-8" standalone="no"?>
<svg
   xmlns:dc="http://purl.org/dc/elements/1.1/"
   xmlns:cc="http://creativecommons.org/ns#"
   xmlns:rdf="http://www.w3.org/1999/02/22-rdf-syntax-ns#"
   xmlns:svg="http://www.w3.org/2000/svg"
   xmlns="http://www.w3.org/2000/svg"
   xmlns:sodipodi="http://sodipodi.sourceforge.net/DTD/sodipodi-0.dtd"
   xmlns:inkscape="http://www.inkscape.org/namespaces/inkscape"
   height="64.36364"
   viewBox="0 0 6.4453125 7.4169038"
   width="60"
   version="1.1"
   id="svg68"
   sodipodi:docname="coolon.svg"
   inkscape:version="0.92.4 (5da689c313, 2019-01-14)">
  <metadata
     id="metadata74">
    <rdf:RDF>
      <cc:Work
         rdf:about="">
        <dc:format>image/svg+xml</dc:format>
        <dc:type
           rdf:resource="http://purl.org/dc/dcmitype/StillImage" />
        <dc:title></dc:title>
      </cc:Work>
    </rdf:RDF>
  </metadata>
  <defs
     id="defs72" />
  <sodipodi:namedview
     pagecolor="#ffffff"
     bordercolor="#666666"
     borderopacity="1"
     objecttolerance="10"
     gridtolerance="10"
     guidetolerance="10"
     inkscape:pageopacity="0"
     inkscape:pageshadow="2"
     inkscape:window-width="1920"
     inkscape:window-height="1017"
     id="namedview70"
     showgrid="false"
     fit-margin-top="0"
     fit-margin-left="0"
     fit-margin-right="0"
     fit-margin-bottom="0"
     inkscape:zoom="6.0354004"
     inkscape:cx="82.103246"
     inkscape:cy="63.03917"
     inkscape:window-x="1072"
     inkscape:window-y="506"
     inkscape:window-maximized="1"
     inkscape:current-layer="svg68" />
  <g
     style="fill:none;fill-rule:nonzero"
     transform="matrix(0.12571023,0,0,0.12571023,-0.22434368,-0.14480331)"
     id="038---Snowman">
    <path
       style="fill:#a56a43"
       inkscape:connector-curvature="0"
       d="m 49.316,30.051 -1.3,-0.434 1.735,-1.952 c 0.237582,-0.266877 0.314739,-0.640231 0.202407,-0.979421 -0.112332,-0.33919 -0.397087,-0.592687 -0.747,-0.665 -0.349913,-0.07231 -0.711825,0.04754 -0.949407,0.314421 l -1.76,1.981 -0.545,-1.632 c -0.112896,-0.339402 -0.398285,-0.592794 -0.748664,-0.664724 -0.350379,-0.07193 -0.712517,0.04853 -0.95,0.316 C 44.015853,26.602748 43.939104,26.976598 44.052,27.316 L 44.96,30.04 40.2,35.4 c -0.367269,0.412557 -0.330557,1.044731 0.082,1.412 0.412557,0.367269 1.044731,0.330557 1.412,-0.082 l 4.874,-5.484 2.118,0.706 c 0.524671,0.174522 1.091478,-0.10933 1.266,-0.634 0.174522,-0.52467 -0.109329,-1.091478 -0.634,-1.266 z"
       id="Shape" />
    <path
       style="fill:#d1d4d1"
       inkscape:connector-curvature="0"
       d="M 45,42 C 45.0045,48.430873 41.379727,54.313799 35.633661,57.20151 29.887596,60.089221 23.003898,59.487357 17.846152,55.646289 12.688406,51.805222 10.13959,45.382521 11.26,39.05 c 0.597932,-3.465905 2.270052,-6.656226 4.78,-9.12 l 0.02,-0.02 h 23.88 l 0.02,0.02 C 43.18251,33.120146 44.996978,37.465511 45,42 Z"
       id="path3" />
    <path
       style="fill:#ecf0f1"
       inkscape:connector-curvature="0"
       d="M 44.74,39.05 C 43.3033,47.170115 36.246234,53.088176 28,53.088176 c -8.246234,0 -15.3033,-5.918061 -16.74,-14.038176 0.597932,-3.465905 2.270052,-6.656226 4.78,-9.12 l 0.02,-0.02 h 23.88 l 0.02,0.02 c 2.509948,2.463774 4.182068,5.654095 4.78,9.12 z"
       id="path5" />
    <path
       style="fill:#c03a2b"
       inkscape:connector-curvature="0"
       d="m 40,30 v 15 c 0,0.552285 -0.447715,1 -1,1 h -4 c -0.552285,0 -1,-0.447715 -1,-1 V 34.93 Z"
       id="path7" />
    <path
       style="fill:#e64c3c"
       inkscape:connector-curvature="0"
       d="m 37.65,25.29 2.3,4.63 0.01,0.01 L 40,30 c 0,0 -3,6 -12,6 -9,0 -12,-6 -12,-6 l 0.04,-0.07 0.01,-0.01 2.3,-4.63 z"
       id="path9" />
    <circle
       style="fill:#ecf0f1"
       r="11"
       cy="20"
       cx="28"
       id="Oval" />
    <path
       style="fill:#35495e"
       inkscape:connector-curvature="0"
       transform="matrix(0.937,-0.348,0.348,0.937,-0.67,8.118)"
       d="m 19.233504,1.9215922 h 6 c 1.10457,0 2,0.8954305 2,2 v 6 h -10 v -6 c 0,-1.1045695 0.895431,-2 2,-2 z"
       id="path12" />
    <path
       style="fill:#3f5c6c"
       inkscape:connector-curvature="0"
       d="M 14.253,14.155 C 13.768186,14.15615 13.352383,13.809375 13.266459,13.332234 13.180534,12.855094 13.449242,12.38505 13.904,12.217 L 32.651,5.248 c 0.517767,-0.1932996 1.0942,0.069733 1.2875,0.5875 0.1933,0.5177669 -0.06973,1.0942003 -0.5875,1.2875 L 14.6,14.092 c -0.111142,0.04095 -0.228557,0.06227 -0.347,0.063 z"
       id="path14" />
    <circle
       style="fill:#35495e"
       r="1"
       cy="18"
       cx="24"
       id="circle16" />
    <circle
       style="fill:#35495e"
       r="1"
       cy="18"
       cx="32"
       id="circle18" />
    <path
       style="fill:#f29c1f"
       inkscape:connector-curvature="0"
       d="M 29,24 C 28.495476,23.998942 28.07076,23.622223 28.009496,23.121432 27.948232,22.620641 28.26961,22.152648 28.759,22.03 l 1,-0.25 -2.128,-0.851 c -0.3319,-0.132545 -0.567876,-0.432089 -0.619038,-0.785795 -0.05116,-0.353707 0.09026,-0.70784 0.371,-0.929 C 27.6637,18.993044 28.0411,18.938455 28.373,19.071 l 5,2 c 0.40386,0.160497 0.657827,0.563459 0.628389,0.997044 -0.02944,0.433584 -0.335542,0.79852 -0.757389,0.902956 l -4,1 C 29.164229,23.990992 29.082235,24.000737 29,24 Z"
       id="path20" />
    <path
       style="fill:#35495e"
       inkscape:connector-curvature="0"
       d="m 28,27 c -1.980193,0.128923 -3.867447,-0.855379 -4.895,-2.553 -0.220538,-0.48811 -0.01733,-1.063314 0.460886,-1.304564 0.478212,-0.24125 1.061594,-0.06287 1.323114,0.404564 0.698313,1.010841 1.887644,1.566321 3.111,1.453 0.552285,0 1,0.447715 1,1 0,0.552285 -0.447715,1 -1,1 z"
       id="path22" />
    <circle
       style="fill:#35495e"
       r="2"
       cy="42"
       cx="28"
       id="circle24" />
    <circle
       style="fill:#35495e"
       r="2"
       cy="50"
       cx="28"
       id="circle26" />
    <path
       style="fill:#a56a43"
       inkscape:connector-curvature="0"
       d="m 11.04,30.04 0.908,-2.724 c 0.112896,-0.339402 0.03615,-0.713252 -0.201336,-0.980724 -0.237483,-0.267472 -0.599621,-0.387931 -0.95,-0.316 C 10.446285,26.091206 10.160896,26.344598 10.048,26.684 L 9.503,28.316 7.743,26.335 C 7.5054184,26.068123 7.1435065,25.948266 6.7935931,26.020579 c -0.3499134,0.07231 -0.6346682,0.32581 -0.747,0.665 C 5.9342613,27.024769 6.0114184,27.398123 6.249,27.665 l 1.735,1.951 -1.3,0.435 c -0.5246705,0.174522 -0.8085219,0.741329 -0.634,1.266 0.174522,0.52467 0.7413295,0.808522 1.266,0.634 l 2.118,-0.706 4.819,5.422 c 0.237582,0.266877 0.599494,0.386734 0.949407,0.314421 0.349913,-0.07231 0.634668,-0.32581 0.747,-0.665 0.112332,-0.33919 0.03517,-0.712544 -0.202407,-0.979421 z"
       id="path28" />
    <g
       style="fill:#d1d4d1"
       id="g58">
      <circle
         r="1"
         cy="13"
         cx="5"
         id="circle30" />
      <circle
         r="1"
         cy="18"
         cx="11"
         id="circle32" />
      <circle
         r="1"
         cy="2"
         cx="1"
         id="circle34" />
      <circle
         r="1"
         cy="22"
         cx="2"
         id="circle36" />
      <circle
         r="1"
         cy="5"
         cx="9"
         id="circle38" />
      <circle
         r="1"
         cy="5"
         cx="42"
         id="circle40" />
      <circle
         r="1"
         cy="20"
         cx="46"
         id="circle42" />
      <circle
         r="1"
         cy="13"
         cx="48"
         id="circle44" />
      <circle
         r="1"
         cy="26"
         cx="54"
         id="circle46" />
      <circle
         r="1"
         cy="38"
         cx="50"
         id="circle48" />
      <circle
         r="1"
         cy="47"
         cx="53"
         id="circle50" />
      <circle
         r="1"
         cy="39"
         cx="5"
         id="circle52" />
      <circle
         r="1"
         cy="48"
         cx="1"
         id="circle54" />
      <circle
         r="1"
         cy="6"
         cx="52"
         id="circle56" />
    </g>
    <path
       style="fill:#a56a43"
       inkscape:connector-curvature="0"
       d="M 45,60 H 11 c -0.552285,0 -1,-0.447715 -1,-1 0,-0.552285 0.447715,-1 1,-1 h 34 c 0.552285,0 1,0.447715 1,1 0,0.552285 -0.447715,1 -1,1 z"
       id="path60" />
    <path
       style="fill:#a56a43"
       inkscape:connector-curvature="0"
       d="M 7,60 H 5 C 4.4477152,60 4,59.552285 4,59 4,58.447715 4.4477152,58 5,58 h 2 c 0.5522847,0 1,0.447715 1,1 0,0.552285 -0.4477153,1 -1,1 z"
       id="path62" />
    <path
       style="fill:#a56a43"
       inkscape:connector-curvature="0"
       d="m 51,60 h -2 c -0.552285,0 -1,-0.447715 -1,-1 0,-0.552285 0.447715,-1 1,-1 h 2 c 0.552285,0 1,0.447715 1,1 0,0.552285 -0.447715,1 -1,1 z"
       id="path64" />
  </g>
</svg>
